#!OML:ASF H:\ManfredETheater\Project 1\Capture day 1\Session 1\subject.ASF
:FULLY-SPECIFIED
:DEGREES
106
root -1.06284 14.6085 -10.757 -211.043 33.9274 -200.008
lowerback 20.6332 -2.27053 0.355178
upperback 2.84611 -2.14957 3.12802
thorax -8.3279 -0.795808 3.76542
lowerneck -9.84226 8.03922 6.6426
upperneck 18.3587 13.8047 -14.2724
head 8.84048 6.13176 -4.27743
rclavicle 7.39479e-014 -6.36111e-014
rhumerus -12.1664 -21.1896 -37.1535
rradius 113.975
rwrist -9.80179
rhand -28.5362 -2.39674
rfingers 7.12502
rthumb -1.90376 -32.368
lclavicle 7.39479e-014 -6.36111e-014
lhumerus -65.2962 -19.5983 89.2538
lradius 92.3154
lwrist 0.0415435
lhand -28.5322 -6.81318
lfingers 7.12502
lthumb -1.89993 23.1581
rfemur -37.8074 0.350023 16.093
rtibia 69.6202
rfoot -12.3287 2.74847
rtoes -14.5441
lfemur -35.1711 9.09789 -20.4913
ltibia 82.8798
lfoot -7.90076 3.81667
ltoes 0.165278
107
root -1.04868 14.5903 -11.0835 -211.161 33.9823 -200.061
lowerback 20.6961 -2.31333 0.61119
upperback 2.80117 -2.15549 3.06305
thorax -8.42395 -0.80721 3.55447
lowerneck -9.84983 8.06429 6.85565
upperneck 18.0713 13.7739 -14.432
head 8.7687 6.1215 -4.36909
rclavicle 7.25564e-014 -2.22639e-014
rhumerus -11.8016 -18.1926 -38.7449
rradius 114.915
rwrist -8.38031
rhand -28.3606 -2.42035
rfingers 7.12502
rthumb -1.7342 -32.393
lclavicle 7.25564e-014 -2.22639e-014
lhumerus -65.086 -18.5396 88.8768
lradius 91.765
lwrist 0.365304
lhand -28.6194 -6.72265
lfingers 7.12502
lthumb -1.98411 23.2479
rfemur -37.6716 0.774289 15.4269
rtibia 71.3866
rfoot -11.9828 0.863369
rtoes -12.344
lfemur -35.3648 8.13871 -19.4867
ltibia 79.7543
lfoot -8.8595 4.38091
ltoes -2.44448
108
root -1.02994 14.5801 -11.4005 -211.145 33.852 -199.945
lowerback 20.678 -2.39391 0.844171
upperback 2.79049 -2.214 3.01269
thorax -8.43461 -0.842983 3.38172
lowerneck -9.95087 8.05774 7.0392
upperneck 17.7825 13.6777 -14.529
head 8.69892 6.07609 -4.4402
rclavicle 8.34896e-015 -3.18055e-015
rhumerus -11.995 -15.0899 -40.341
rradius 115.736
rwrist -6.92806
rhand -28.1757 -2.46094
rfingers 7.12502
rthumb -1.55558 -32.435
lclavicle 8.34896e-015 -3.18055e-015
lhumerus -64.6246 -17.3558 88.3377
lradius 91.2797
lwrist 0.806623
lhand -28.6926 -6.49775
lfingers 7.12502
lthumb -2.05486 23.4721
rfemur -37.3592 0.815959 14.7979
rtibia 72.9167
rfoot -12.1304 -0.613845
rtoes -11.3355
lfemur -35.4441 7.09637 -18.5227
ltibia 76.33
lfoot -9.58381 4.86353
ltoes -5.20323
109
root -1.00581 14.5767 -11.709 -211.013 33.5392 -199.697
lowerback 20.5735 -2.48227 1.02102
upperback 2.79896 -2.29567 2.97936
thorax -8.37401 -0.888348 3.26101
lowerneck -10.1343 7.99774 7.16166
upperneck 17.5345 13.491 -14.5228
head 8.6345 5.98467 -4.47616
rclavicle -3.33958e-014 4.45278e-014
rhumerus -12.7159 -11.9509 -41.9645
rradius 116.381
rwrist -5.50755
rhand -27.9779 -2.47767
rfingers 7.12502
rthumb -1.3646 -32.4531
lclavicle -3.33958e-014 4.45278e-014
lhumerus -63.9452 -16.1276 87.6963
lradius 90.8248
lwrist 1.27233
lhand -28.7498 -6.13213
lfingers 7.12502
lthumb -2.11003 23.8372
rfemur -36.9038 0.537597 14.1788
rtibia 74.2419
rfoot -12.9364 -1.63175
rtoes -11.4418
lfemur -35.42 6.03578 -17.6457
ltibia 72.6923
lfoot -10.0764 5.21324
ltoes -7.69556
110
root -0.976511 14.5768 -12.0111 -210.777 33.112 -199.311
lowerback 20.4034 -2.55047 1.17107
upperback 2.81551 -2.35573 2.97865
thorax -8.26806 -0.922215 3.1817
lowerneck -10.3886 7.87262 7.21097
upperneck 17.3562 13.2048 -14.4018
head 8.58035 5.84388 -4.47304
rclavicle 5.30755e-014 -6.99722e-014
rhumerus -13.9029 -8.84384 -43.6463
rradius 116.772
rwrist -4.16543
rhand -27.8095 -2.4678
rfingers 7.12502
rthumb -1.20193 -32.4442
lclavicle 5.30755e-014 -6.99722e-014
lhumerus -63.0804 -14.9323 86.9987
lradius 90.3747
lwrist 1.72766
lhand -28.7752 -5.64677
lfingers 7.12502
lthumb -2.13458 24.3223
rfemur -36.3259 0.057774 13.611
rtibia 75.4003
rfoot -14.1792 -2.39259
rtoes -12.5329
lfemur -35.3122 5.05161 -16.8226
ltibia 68.9668
lfoot -10.3838 5.38997
ltoes -9.93346
111
root -0.942939 14.5802 -12.3093 -210.497 32.6394 -198.843
lowerback 20.1999 -2.5752 1.28881
upperback 2.83 -2.36442 3.01265
thorax -8.14587 -0.930084 3.14318
lowerneck -10.6613 7.68522 7.16978
upperneck 17.2467 12.8345 -14.1735
head 8.52875 5.66348 -4.43029
rclavicle 1.53064e-014 9.54166e-015
rhumerus -15.4638 -5.81109 -45.4213
rradius 116.822
rwrist -2.9393
rhand -27.6468 -2.41328
rfingers 7.12502
rthumb -1.04483 -32.3905
lclavicle 1.53064e-014 9.54166e-015
lhumerus -62.0946 -13.8022 86.2802
lradius 89.9283
lwrist 2.18613
lhand -28.7774 -5.06873
lfingers 7.12502
lthumb -2.13669 24.9003
rfemur -35.6291 -0.503145 13.0802
rtibia 76.4289
rfoot -15.6596 -2.99864
rtoes -14.3506
lfemur -35.0938 4.2255 -16.0727
ltibia 65.2636
lfoot -10.5286 5.39464
ltoes -11.9657
112
root -0.907062 14.5877 -12.6055 -210.207 32.2087 -198.333
lowerback 19.979 -2.54152 1.40568
upperback 2.83464 -2.2955 3.08005
thorax -8.02673 -0.900402 3.12064
lowerneck -10.9071 7.44679 7.04783
upperneck 17.1887 12.4055 -13.8744
head 8.47328 5.45725 -4.35956
rclavicle 2.98177e-015 -5.08889e-014
rhumerus -17.2959 -2.91329 -47.3181
rradius 116.445
rwrist -1.8514
rhand -27.472 -2.3147
rfingers 7.12502
rthumb -0.875985 -32.2926
lclavicle 2.98177e-015 -5.08889e-014
lhumerus -61.0417 -12.7616 85.554
lradius 89.4913
lwrist 2.69817
lhand -28.7577 -4.4462
lfingers 7.12502
lthumb -2.11773 25.523
rfemur -34.8304 -1.05214 12.6035
rtibia 77.3353
rfoot -17.0909 -3.60766
rtoes -16.0067
lfemur -34.7623 3.62686 -15.3944
ltibia 61.6961
lfoot -10.5378 5.2596
ltoes -13.7619
113
root -0.871813 14.5998 -12.8998 -209.977 31.8253 -197.847
lowerback 19.8063 -2.45136 1.5057
upperback 2.83007 -2.15429 3.15733
thorax -7.94538 -0.834997 3.10261
lowerneck -11.113 7.17529 6.86716
upperneck 17.1683 11.9477 -13.5415
head 8.41591 5.23925 -4.27277
rclavicle -1.21259e-014 -3.18055e-014
rhumerus -19.3012 -0.237113 -49.3504
rradius 115.582
rwrist -0.92226
rhand -27.2409 -2.19057
rfingers 7.12502
rthumb -0.652778 -32.1693
lclavicle -1.21259e-014 -3.18055e-014
lhumerus -59.9614 -11.8257 84.8134
lradius 89.0833
lwrist 3.30124
lhand -28.7284 -3.8161
lfingers 7.12502
lthumb -2.08939 26.1534
rfemur -33.9055 -1.57746 12.1287
rtibia 78.1121
rfoot -18.4602 -4.15389
rtoes -17.3762
lfemur -34.2983 3.25785 -14.853
ltibia 58.3599
lfoot -10.4232 5.05098
ltoes -15.231
114
root -0.837985 14.6172 -13.192 -209.8 31.5079 -197.405
lowerback 19.6631 -2.31208 1.59311
upperback 2.81248 -1.95178 3.23576
thorax -7.8958 -0.740028 3.07955
lowerneck -11.265 6.89096 6.65449
upperneck 17.1686 11.4932 -13.2177
head 8.35738 5.02444 -4.18452
rclavicle -5.56597e-015 -6.04305e-014
rhumerus -21.3939 2.13357 -51.503
rradius 114.215
rwrist -0.151515
rhand -26.928 -2.09241
rfingers 7.12502
rthumb -0.35056 -32.0719
lclavicle -5.56597e-015 -6.04305e-014
lhumerus -58.8948 -10.9825 84.0416
lradius 88.7232
lwrist 3.98442
lhand -28.6996 -3.23329
lfingers 7.12502
lthumb -2.06161 26.7365
rfemur -32.8761 -2.0459 11.6514
rtibia 78.7521
rfoot -19.7948 -4.68907
rtoes -18.7854
lfemur -33.7426 3.12192 -14.4636
ltibia 55.3435
lfoot -10.1813 4.82846
ltoes -16.2832
